<?xml version="1.0" encoding="UTF-8" standalone="no" ?>
<!DOCTYPE svg PUBLIC "-//W3C//DTD SVG 1.1//EN" "http://www.w3.org/Graphics/SVG/1.1/DTD/svg11.dtd">
<svg xmlns="http://www.w3.org/2000/svg" xmlns:xlink="http://www.w3.org/1999/xlink" version="1.1" width="640" height="480" viewBox="0 0 640 480" xml:space="preserve">
<desc>Created with Fabric.js 3.6.3</desc>
<defs>
</defs>
<g transform="matrix(1 0 0 1 314 207.02)" id="Capa_1"  >
<path style="stroke: none; stroke-width: 1; stroke-dasharray: none; stroke-linecap: butt; stroke-dashoffset: 0; stroke-linejoin: miter; stroke-miterlimit: 4; fill: rgb(255,102,0); fill-rule: nonzero; opacity: 1;"  transform=" translate(-253.5, -253.5)" d="M 423.9 262.318 c -8.5 0 -16.7 1.3 -24.4 3.7 l -11.2 -22.1 c 14.3 -4.9 28.9 -7.2 44 -5.8 c 8.5 0.7 15 -5.8 15.3 -14 l -0.3 -25.7 c -0.9 -4.4 -22.8 -106.7 -120.8 -120.3 c -9.4 -1.4 -19.5 8.2 -14.9 19.4 c 2.3 5.3 4.7 11.6 7 18.3 l -23 -13 c -6.8 -3.8 -15.4 -1.4 -19.2 5.3 c -3.8 6.8 -1.4 15.4 5.3 19.2 l 47.1 26.6 c 1.5 8 2.5 15.6 2.5 22.3 c -13.2 -5.4 -32.4 -10.4 -53.5 -6.5 c -22 4 -41.3 16.5 -57.7 37.1 c -37.6 -17.8 -159.9 -68.3 -215.4 -0.2 c -2 2.5 -3.2 5.7 -3.2 8.9 v 37.1 c 0 10.3 11.7 18.7 22.4 11.4 c 17.4 -12.8 38 -19.5 59.5 -19.5 c 22.8 0 43.8 7.7 60.7 20.5 l -12.8 12.8 c -13.6 -9.6 -30.1 -15.4 -48 -15.4 c -45.9 0 -83.3 37.4 -83.3 83.3 s 37.4 83.3 83.3 83.3 s 83.3 -37.4 83.3 -83.3 c 0 -17.9 -5.7 -34.4 -15.4 -48 l 12.8 -12.8 c 12.8 16.9 20.5 37.9 20.5 60.8 c 0 7.8 6.3 14.1 14.1 14.1 h 103.1 c 7.8 0 14.1 -6.3 14.1 -14.1 c 0 -37 18.7 -69.7 47.2 -89.1 l 11.2 22.3 c -20.5 15.2 -33.8 39.4 -33.8 66.8 c 0 45.9 37.4 83.3 83.3 83.3 s 83.3 -37.4 83.3 -83.3 C 507 299.818 469.8 262.318 423.9 262.318 z M 83.5 400.718 c -30.4 0 -55.1 -24.7 -55.1 -55.1 c 0 -30.4 24.7 -55.1 55.1 -55.1 c 10.1 0 19.5 2.8 27.7 7.5 l -37.6 37.6 c -5.5 5.5 -5.5 14.4 0 19.9 s 14.4 5.5 19.9 0 l 37.6 -37.6 c 4.8 8.1 7.5 17.6 7.5 27.7 C 138.6 376.018 113.9 400.718 83.5 400.718 z M 288.6 331.518 h -76.5 c -7 -64.7 -62 -115.2 -128.5 -115.2 c -18.8 0 -37 4 -53.7 11.7 v -7.2 c 52.5 -54.9 186.8 15.6 188.2 16.4 c 6.4 3.4 14.3 1.4 18.3 -4.6 c 13.3 -20 28.9 -31.8 46.4 -35.1 c 26.9 -5 50.6 11.3 50.8 11.5 c 6.3 4.7 16.8 3.1 21 -5.7 c 10.9 -24.2 1.2 -64.5 -7.4 -91 c 54 21.1 70 80.5 72.3 90.4 v 6.9 C 351.2 211.818 295.5 264.518 288.6 331.518 z M 423.9 400.718 c -30.4 0 -55.1 -24.7 -55.1 -55.1 c 0 -16.4 7.2 -31.1 18.6 -41.2 l 23.9 47.5 c 3.5 6.9 12 9.7 18.9 6.2 c 6.9 -3.5 9.7 -12 6.2 -18.9 l -24 -47.6 c 3.7 -0.8 7.5 -1.2 11.4 -1.2 c 30.4 0 55.1 24.7 55.1 55.1 C 479 376.018 454.3 400.718 423.9 400.718 z" stroke-linecap="round" />
</g>
</svg>